General
Unique ID                                : 212830952622355274229385992364294406153 (0xA01DC01F1D943F5B5DF222CB967C0009)
Complete name                            : Royz - RAIZIN [WEB-DL 1080p AAC x264-SEKAI].mkv
Format                                   : Matroska
Format version                           : Version 4
File size                                : 285 MiB
Duration                                 : 3 min 58 s
Overall bit rate                         : 10.0 Mb/s
Frame rate                               : 23.976 FPS
Title                                    : Royz - RAIZIN [WEB-DL 1080p AAC x264-SEKAI]
Encoded date                             : 2025-08-11 03:58:00 UTC
Writing application                      : mkvmerge 94.0 ('Initiate') 64-bit
Writing library                          : libebml v1.4.5 + libmatroska v1.7.1
Website                                  : https://sekai-archivist.blogspot.com/

Video
ID                                       : 1
Format                                   : AVC
Format/Info                              : Advanced Video Codec
Format profile                           : High@L4
Format settings                          : CABAC / 4 Ref Frames
Format settings, CABAC                   : Yes
Format settings, Reference frames        : 4 frames
Format settings, Slice count             : 8 slices per frame
Codec ID                                 : V_MPEG4/ISO/AVC
Duration                                 : 3 min 58 s
Bit rate                                 : 9 733 kb/s
Width                                    : 1 918 pixels
Height                                   : 868 pixels
Display aspect ratio                     : 2.2:1
Frame rate mode                          : Constant
Frame rate                               : 23.976 (24000/1001) FPS
Color space                              : YUV
Chroma subsampling                       : 4:2:0 (Type 2)
Bit depth                                : 8 bits
Scan type                                : Progressive
Bits/(Pixel*Frame)                       : 0.244
Stream size                              : 277 MiB (97%)
Language                                 : Japanese
Default                                  : Yes
Forced                                   : No
Color range                              : Limited
Color primaries                          : BT.709
Transfer characteristics                 : BT.709
Matrix coefficients                      : BT.709

Audio
ID                                       : 2
Format                                   : AAC LC
Format/Info                              : Advanced Audio Codec Low Complexity
Codec ID                                 : A_AAC-2
Duration                                 : 3 min 58 s
Bit rate                                 : 273 kb/s
Channel(s)                               : 2 channels
Channel layout                           : L R
Sampling rate                            : 48.0 kHz
Frame rate                               : 46.875 FPS (1024 SPF)
Compression mode                         : Lossy
Stream size                              : 7.75 MiB (3%)
Language                                 : Japanese
Default                                  : Yes
Forced                                   : No


